<svg id="Layer_1" data-name="Layer 1" xmlns="http://www.w3.org/2000/svg" width="344.51mm" height="344.51mm" viewBox="0 0 976.56 976.56">
  <defs>
    <style>
      .cls-1 {
        fill: #00458c;
        stroke-width: 0px;
      }
    </style>
  </defs>
  <path class="cls-1" d="m98.22,331.99h63.53l126.57,176.78v-176.78h72.76v312.57h-63.02l-127.07-176.78v176.78h-72.76v-312.57Z"/>
  <path class="cls-1" d="m401.13,486.29c0-92.78,62.51-154.3,151.82-154.3,32.74,0,64.99,7.44,85.83,18.85l-34.23,67.47c-11.41-6.45-27.79-11.41-45.65-11.41-46.63,0-79.88,34.73-79.88,80.37s33.24,82.36,80.37,82.36c17.36,0,33.74-4.96,45.15-11.41l34.23,67.48c-22.32,12.4-55.07,18.85-85.83,18.85-81.37,0-151.82-59.54-151.82-158.27Z"/>
  <path class="cls-1" d="m678.63,331.99h77.88v236.73h121.82v75.84h-199.7v-312.57Z"/>
</svg>
